<?xml version="1.0" standalone="no"?>
<!DOCTYPE svg PUBLIC "-//W3C//DTD SVG 20010904//EN"
 "http://www.w3.org/TR/2001/REC-SVG-20010904/DTD/svg10.dtd">
<svg version="1.0" xmlns="http://www.w3.org/2000/svg"
 width="400.000000pt" height="400.000000pt" viewBox="0 0 400.000000 400.000000"
 preserveAspectRatio="xMidYMid meet">
<metadata>
Created by potrace 1.11, written by Peter Selinger 2001-2013
</metadata>
<g transform="translate(0.000000,400.000000) scale(0.100000,-0.100000)"
fill="#000000" stroke="none">
<path d="M0 2000 l0 -2000 2000 0 2000 0 0 2000 0 2000 -2000 0 -2000 0 0
-2000z m1003 655 c158 -28 279 -111 340 -234 30 -61 32 -72 32 -171 0 -97 -2
-110 -32 -172 -40 -85 -97 -147 -171 -186 -90 -48 -166 -62 -364 -69 l-178 -6
0 -273 0 -274 -145 0 -145 0 0 700 0 700 293 0 c204 -1 316 -5 370 -15z m946
-67 c21 -46 123 -275 226 -510 104 -236 192 -428 195 -428 4 0 107 228 231
508 l224 507 160 0 160 0 3 -697 2 -698 -145 0 -145 0 -2 434 -3 433 -190
-433 -190 -434 -105 0 -106 0 -189 432 -190 433 -3 -433 -2 -432 -145 0 -145
0 0 700 0 700 161 0 160 0 38 -82z m1689 -1025 c97 -72 96 -195 -1 -267 -21
-16 -43 -21 -87 -21 -66 0 -99 18 -137 75 -52 76 -13 191 77 229 37 16 117 7
148 -16z"/>
<path d="M630 2245 l0 -205 125 0 c193 0 267 24 307 100 44 87 31 191 -32 251
-50 48 -100 59 -264 59 l-136 0 0 -205z"/>
</g>
</svg>
